<mxfile host="app.diagrams.net" modified="2023-07-19T17:31:22.537Z" agent="Mozilla/5.0 (Windows NT 10.0; Win64; x64) AppleWebKit/537.36 (KHTML, like Gecko) Chrome/114.0.0.0 Safari/537.36 Edg/114.0.1823.82" version="21.5.2" etag="ur46v869Eboiyp3WV2v8" type="github">
  <diagram name="Page-1" id="qv3lwaezw_maZTqKGBQF">
    <mxGraphModel>
      <root>
        <mxCell id="0" />
        <mxCell id="1" parent="0" />
      </root>
    </mxGraphModel>
  </diagram>
</mxfile>
